<?xml version="1.0" encoding="UTF-8"?><svg id="Layer_2" xmlns="http://www.w3.org/2000/svg" viewBox="0 0 955.62 223.22"><defs><style>.cls-1{fill:#fff;}</style></defs><g id="Layer_2-2"><g id="Layer_1-2"><g><path class="cls-1" d="m429.07,223.22h-16c.39-.88.67-1.6,1-2.29,36.27-72.94,72.53-145.88,108.78-218.83.43-1.39,1.8-2.26,3.24-2.08,4.47.13,9,0,13.35,0,.07.1.12.21.17.33,0,.08.08.16.06.23-.06.23-.14.45-.24.67-36.76,73.97-73.55,147.96-110.36,221.97h0Z"/><path class="cls-1" d="m.34,73.18h34.38c3.76-.11,7.52.35,11.15,1.34,1.99.59,3.92,1.37,5.77,2.32,13.34,7.14,12.68,25.78,1.39,32.66-.81.49-1.57,1-2.47,1.63,2.3,1.14,4.42,2.08,6.42,3.22,4,2.27,6.94,5.45,8.13,10,2.47,9.42-.12,19.69-10.91,24.62-5.21,2.3-10.86,3.44-16.56,3.34H.53c-.56-1.86-.75-75.4-.19-79.13h0Zm13.35,66.73c.47.08.94.14,1.42.17,7.59,0,15.18.06,22.76,0,3.12.06,6.21-.65,9-2.06,2.33-1.14,4.06-3.22,4.77-5.71,1.57-5.6-.85-10.47-6.28-12.55-3.03-1.04-6.23-1.54-9.43-1.46-6.79-.07-13.58,0-20.37,0-.64.03-1.27.11-1.9.22,0,0,.03,21.39.03,21.39Zm0-33.35c7.26,0,14.22.13,21.16-.07,2.31-.14,4.58-.68,6.71-1.59,4.27-1.69,6.23-5.05,6-9.63,0-4.17-2.88-7.78-6.93-8.74-2.31-.63-4.69-.96-7.08-1-5.91-.14-11.83-.05-17.75,0-.69,0-1.38.11-2.15.17,0,0,.04,20.86.04,20.86Z"/><path class="cls-1" d="m890.36,73.3h13.61c.13,2.7,0,5.39.06,8.07s0,5.43,0,8.15v16.45h37.84c.16-3.57.05-7.14.07-10.7s0-7.35,0-11v-10.9h13.68v78.78h-13.63v-32.98h-37.87c-.18,2.66-.06,5.36-.08,8s0,5.6,0,8.4v16.68c-4.58.05-9,0-13.42,0-.54-1.8-.76-73.8-.26-78.95Z"/><path class="cls-1" d="m403.81,152.13c-1,.07-1.64.14-2.25.14-4.16,0-8.32-.06-12.47,0-1.35.11-2.66-.53-3.39-1.67-7.93-10.55-15.9-21.07-23.91-31.54-.52-.7-1.07-1.38-1.72-2.21-.54.47-1,.83-1.45,1.26-3.25,3.31-6.45,6.67-9.74,9.94-.87.82-1.33,1.98-1.27,3.18v20.72c-2.32.57-4.55.22-6.74.28s-4.47,0-6.66,0c-.55-1.84-.65-76.38-.11-79h13.43c.18,3.24.06,6.48.08,9.72s0,6.55,0,9.83v20c1-1,1.67-1.54,2.24-2.14,11.27-11.9,22.53-23.81,33.79-35.73,1.01-1.23,2.54-1.9,4.13-1.82,4,.14,8,0,12,0h2.06l.23.47-32.57,33.69,34.32,44.88Z"/><path class="cls-1" d="m863.2,82.09l-7.35,10.36-2.27-1.51c-4.46-2.89-9.15-5.27-14.45-6.15-3.47-.69-7.04-.59-10.46.32-4.83,1.42-7.51,5.08-7.24,9.72,0,2.72,1.51,5.2,3.93,6.44,2.7,1.37,5.51,2.53,8.4,3.45,4.56,1.45,9.24,2.52,13.82,3.93,2.29.72,4.51,1.63,6.64,2.72,9.61,4.88,12.31,12.3,11.17,21.78-1,8.4-5.77,14.19-13.46,17.59-4.67,1.95-9.69,2.89-14.75,2.74-10.97.1-21.65-3.58-30.24-10.41-.63-.5-1.24-1-1.84-1.55-.23-.25-.44-.51-.63-.79,1.34-1.6,2.7-3.24,4.08-4.87s2.68-3.15,4.11-4.83l2.37,1.83c4.68,3.58,9.69,6.51,15.55,7.68,4,.78,8,1.18,11.89.17,2.01-.5,3.92-1.34,5.65-2.47,3.94-2.8,4.87-8.26,2.07-12.2-.67-.95-1.53-1.76-2.52-2.37-2.86-1.61-5.92-2.82-9.1-3.61-4.7-1.28-9.47-2.37-14.08-3.9-2.96-1-5.79-2.34-8.43-4-5.44-3.34-8-8.47-8.46-14.78-1-13.63,8-22.61,20.44-24.7s24,.83,34.15,8.47c.31.3.58.55,1.01.94h0Z"/><path class="cls-1" d="m607.12,82.2c-2.39,3.35-4.74,6.66-7.26,10.21-.79-.51-1.5-1-2.2-1.41-4.52-3-9.29-5.37-14.67-6.25-3.31-.7-6.74-.59-10,.31-1.65.55-3.2,1.35-4.6,2.39-4.2,3.15-4.15,11,1,13.92,3.18,1.66,6.53,2.95,10,3.85,4.91,1.42,9.83,2.81,14.7,4.33,1.59.52,3.12,1.19,4.59,2,7.95,4.19,11.4,10.9,10.8,19.74-.66,9.58-5.63,16.08-14.44,19.7-4.46,1.75-9.22,2.59-14.01,2.46-11.21.07-22.09-3.8-30.74-10.93-.61-.5-1.17-1-1.9-1.7l8.24-9.79c1.78,1.32,3.36,2.54,5,3.69,6.11,4.49,13.56,6.78,21.14,6.5,2.97,0,5.89-.8,8.46-2.3,3.48-1.94,5.26-5.95,4.35-9.83-.27-2.02-1.44-3.81-3.19-4.86-2.1-1.3-4.33-2.37-6.66-3.18-4.11-1.31-8.34-2.18-12.48-3.39-2.85-.8-5.64-1.76-8.38-2.88-1.98-.86-3.86-1.91-5.63-3.14-3.71-2.48-6.26-6.35-7.09-10.73-2.53-12.79,3.33-21.91,13.32-26.26,5.5-2.39,11.28-2.84,17.16-2.43,8.19.57,16.04,3.44,22.66,8.29.45.33.89.67,1.33,1,.19.22.35.45.5.69h0Z"/><path class="cls-1" d="m307.6,131.38l9,8.38c-.5.57-.95,1.11-1.43,1.61-13.8,14.31-34,14.8-46.75,9-15-6.77-22.95-18.79-23.82-35.11-.87-16.13,5.44-29,19.3-37.66,6.69-4.2,14.13-5.78,22-5.69,6.08-.05,12.11,1.16,17.71,3.54,4.67,2.17,8.94,5.12,12.61,8.73-3,3.43-5.87,6.76-8.85,10.19-.92-.75-1.65-1.35-2.39-1.94-3.83-3.06-7.89-5.75-12.72-7-14.77-3.71-28.7,4.65-32.35,19.51-2.13,8.63-1.05,16.91,3.89,24.37,8.61,13,24.32,13.81,34.17,8.47,3.48-1.81,6.61-4.33,9.63-6.4h0Z"/><path class="cls-1" d="m84.22,73.31h13.44c.05,1.11.14,2.12.14,3.13v63.26h41.49v12.43h-54.93c-.51-1.68-.67-75.44-.14-78.82h0Z"/><path class="cls-1" d="m648.07,139.77h41.13c.55,1.94.63,9.67.14,12.36h-54.95v-78.77h13.65c.07,7.37,0,14.69,0,22v22.07l.03,22.34h0Z"/><path class="cls-1" d="m534.07,26.54h7.67c-.47,1-.84,1.86-1.25,2.68-16.47,33.13-32.95,66.26-49.42,99.4-10.42,20.97-20.83,41.95-31.24,62.92-.85,1.73-1.78,2.6-3.78,2.37-1.73-.09-3.45-.09-5.18,0,27.87-56.09,55.53-111.73,83.2-167.37Z"/><path class="cls-1" d="m787.11,152.98h-15l-4.49-11.27h-31.57c1.71-4.34,3.28-8.33,4.91-12.49h21.71c-.36-1.09-.59-1.89-.89-2.67-3-7.74-6-15.48-9.08-23.2-.58-1.22-.6-2.62-.07-3.86,1.8-4.27,3.42-8.61,5.13-12.92.25-.64.59-1.25,1.07-2.27l28.28,68.68Z"/><path class="cls-1" d="m235.07,152.15h-14.86c-1.35-3.39-2.73-6.85-4.16-10.41h-31.68c1.53-4.38,3.21-8.36,4.86-12.51h21.81c-.35-1.06-.57-1.85-.86-2.61-3-7.75-6-15.5-9.1-23.22-.64-1.37-.66-2.95-.05-4.34,1.75-4.12,3.33-8.31,5-12.47.25-.63.56-1.25,1.08-2.38,9.4,22.88,18.63,45.3,27.96,67.94h0Z"/><path class="cls-1" d="m723.75,153.07h-13.34c-.41-.04-.82-.1-1.22-.2l32.81-79.42h11.17c1.41,0,1.69.48,1.3,1.8-.12.38-.26.75-.42,1.12-9.78,24.83-19.56,49.65-29.35,74.48-.27.68-.57,1.33-.95,2.22h0Z"/><path class="cls-1" d="m190.29,73.15h11c1.48,0,1.83.56,1.46,2-.16.54-.35,1.06-.58,1.57-8.31,21.15-16.6,42.28-24.88,63.37-1.58,4-3.21,8-4.85,12.08h-14.78l32.63-79.02Z"/></g></g></g></svg>